<?xml version="1.0" standalone="no"?>
<!DOCTYPE svg PUBLIC "-//W3C//DTD SVG 20010904//EN"
 "http://www.w3.org/TR/2001/REC-SVG-20010904/DTD/svg10.dtd">
<svg version="1.0" xmlns="http://www.w3.org/2000/svg"
 width="3508.000000pt" height="2480.000000pt" viewBox="0 0 3508.000000 2480.000000"
 preserveAspectRatio="xMidYMid meet">

<g transform="translate(0.000000,2480.000000) scale(0.100000,-0.100000)"
fill="#000000" stroke="none">
<path d="M12880 18976 c0 -9 30 -14 35 -6 4 6 -3 10 -14 10 -12 0 -21 -2 -21
-4z"/>
<path d="M13258 18973 c6 -2 18 -2 25 0 6 3 1 5 -13 5 -14 0 -19 -2 -12 -5z"/>
<path d="M13450 18959 c0 -5 5 -7 10 -4 6 3 10 8 10 11 0 2 -4 4 -10 4 -5 0
-10 -5 -10 -11z"/>
<path d="M11170 18449 c0 -5 5 -7 10 -4 6 3 10 8 10 11 0 2 -4 4 -10 4 -5 0
-10 -5 -10 -11z"/>
<path d="M13180 18429 c0 -5 5 -7 10 -4 6 3 10 8 10 11 0 2 -4 4 -10 4 -5 0
-10 -5 -10 -11z"/>
<path d="M12504 18416 c-11 -8 -15 -18 -10 -23 5 -4 11 -2 13 5 3 6 11 12 19
12 8 0 14 5 14 10 0 14 -13 12 -36 -4z"/>
<path d="M12634 18398 c-3 -5 -15 -8 -25 -5 -12 3 -20 -2 -24 -15 -6 -15 -9
-17 -21 -7 -10 8 -18 9 -25 2 -7 -7 -1 -15 20 -26 25 -12 31 -13 35 -1 3 8 12
14 21 14 8 0 15 5 15 10 0 6 11 10 25 10 14 0 25 4 25 9 0 13 -39 21 -46 9z"/>
<path d="M12762 18397 c-9 -10 -4 -13 23 -13 27 0 32 3 23 13 -6 7 -16 13 -23
13 -7 0 -17 -6 -23 -13z"/>
<path d="M13420 18391 c0 -6 5 -13 10 -16 6 -3 10 1 10 9 0 9 -4 16 -10 16 -5
0 -10 -4 -10 -9z"/>
<path d="M13574 18385 c-16 -12 -16 -14 -3 -15 9 0 22 7 29 15 16 19 0 19 -26
0z"/>
<path d="M12340 18380 c0 -5 5 -10 10 -10 6 0 10 5 10 10 0 6 -4 10 -10 10 -5
0 -10 -4 -10 -10z"/>
<path d="M12445 18370 c-3 -5 -16 -10 -28 -11 -30 -1 -83 -65 -69 -82 6 -7 9
-23 5 -35 -4 -16 -1 -22 10 -22 9 0 17 11 19 26 2 15 12 32 22 38 11 6 29 19
40 29 17 15 22 16 31 4 5 -8 22 -16 36 -19 24 -4 25 -3 15 18 -6 13 -21 29
-33 35 -13 7 -23 16 -23 21 0 11 -18 10 -25 -2z"/>
<path d="M12282 18339 c-14 -16 -33 -29 -46 -29 -12 0 -27 -5 -32 -10 -12 -12
-44 -3 -44 11 0 15 -20 10 -43 -11 -14 -14 -21 -33 -22 -58 0 -46 -29 -54 -30
-8 0 39 -22 45 -35 10 -8 -21 -14 -24 -22 -16 -21 21 -63 13 -94 -17 -22 -22
-37 -28 -64 -26 -41 3 -70 -18 -63 -46 6 -21 -7 -25 -25 -7 -6 6 -19 13 -28
14 -13 2 -15 -4 -10 -30 4 -23 2 -37 -7 -45 -17 -14 -33 2 -39 38 -4 33 -24
37 -32 7 -3 -14 -21 -39 -38 -55 -30 -28 -33 -29 -45 -11 -8 11 -20 16 -33 13
-20 -5 -28 -23 -10 -23 6 0 10 -6 10 -14 0 -21 -44 -46 -70 -39 -15 4 -26 1
-32 -11 -7 -13 -17 -16 -34 -12 -27 7 -32 -10 -14 -44 14 -26 -7 -37 -25 -14
-8 11 -15 15 -15 10 0 -5 -6 -4 -13 2 -9 8 -24 2 -56 -24 -24 -18 -49 -34 -56
-34 -7 0 -16 -11 -19 -24 -4 -17 -22 -32 -54 -48 -26 -13 -55 -33 -65 -45 -10
-13 -25 -23 -33 -23 -11 0 -13 -6 -9 -21 7 -20 5 -22 -30 -16 -32 5 -36 4 -30
-11 17 -39 17 -52 2 -52 -8 0 -20 6 -26 14 -10 12 -16 12 -42 -2 -16 -9 -29
-21 -29 -26 0 -5 3 -6 7 -3 8 9 33 -12 33 -28 0 -6 -27 -20 -60 -31 -48 -15
-60 -23 -60 -39 0 -26 -18 -45 -42 -45 -10 0 -18 -7 -18 -15 0 -8 -8 -15 -18
-15 -13 0 -23 -13 -32 -41 -13 -39 -49 -69 -83 -69 -16 0 -27 -21 -27 -51 0
-22 -28 -26 -36 -4 -8 21 -21 19 -27 -4 -3 -14 -1 -18 9 -14 32 12 11 -28 -26
-52 -22 -14 -40 -29 -40 -34 0 -18 -45 -80 -62 -86 -10 -4 -18 -11 -18 -17 0
-6 6 -6 15 2 9 7 15 8 15 2 0 -18 -69 -72 -85 -66 -20 8 -20 -29 0 -50 21 -21
19 -28 -4 -14 -15 9 -23 9 -35 -1 -9 -8 -16 -20 -16 -27 0 -8 -4 -14 -10 -14
-5 0 -10 5 -10 10 0 6 -5 10 -11 10 -6 0 -9 -17 -7 -42 3 -38 0 -43 -19 -46
-33 -5 -63 -53 -63 -100 0 -26 -5 -42 -15 -46 -8 -3 -12 -11 -9 -19 3 -8 -9
-21 -31 -32 -19 -11 -35 -27 -35 -37 0 -9 -4 -19 -10 -23 -5 -3 -12 -32 -16
-65 -6 -54 -9 -60 -30 -60 -33 0 -55 -35 -43 -68 12 -32 -3 -51 -26 -32 -23
19 -31 3 -9 -21 17 -19 17 -21 2 -30 -31 -17 -88 -162 -68 -174 11 -7 26 15
34 49 4 17 11 25 16 20 13 -13 -14 -89 -32 -89 -39 -1 -57 -17 -60 -53 -2 -24
-8 -37 -18 -38 -33 -2 -40 -4 -40 -12 0 -5 10 -8 22 -8 30 1 37 -31 8 -36 -22
-3 -22 -3 3 -30 22 -23 23 -29 11 -39 -12 -10 -18 -8 -31 10 -24 35 -39 11
-19 -30 21 -42 20 -49 -4 -49 -25 0 -46 -43 -24 -48 19 -5 17 -22 -5 -51 -13
-17 -24 -22 -37 -17 -13 5 -11 0 7 -16 22 -21 25 -29 20 -73 -4 -28 -12 -50
-20 -53 -8 -3 -11 0 -7 7 14 22 -12 10 -27 -13 -14 -21 -14 -25 1 -39 14 -15
14 -18 -1 -35 -21 -23 -21 -36 -2 -52 24 -20 18 -30 -11 -20 -22 9 -25 8 -19
-9 3 -10 -1 -24 -10 -31 -8 -7 -15 -24 -15 -38 l0 -25 27 24 c23 21 25 22 18
4 -4 -11 -8 -29 -10 -39 -1 -11 -8 -22 -16 -24 -18 -6 -49 -33 -49 -44 0 -4 6
-8 14 -8 23 0 27 -29 6 -40 -14 -8 -20 -21 -20 -45 0 -42 -26 -49 -36 -9 -4
15 -10 22 -16 16 -15 -15 9 -61 37 -68 13 -3 22 -10 19 -15 -3 -5 -10 -7 -15
-3 -6 3 -19 -2 -29 -11 -10 -9 -23 -14 -29 -11 -20 13 -20 -14 0 -48 17 -30
18 -35 5 -30 -9 3 -19 17 -22 30 -9 37 -31 29 -32 -12 -1 -25 -8 -42 -22 -51
-17 -12 -18 -18 -9 -29 14 -17 29 -9 29 17 0 23 10 24 36 4 18 -15 18 -16 -10
-39 -18 -15 -27 -30 -23 -40 3 -8 2 -18 -3 -21 -6 -4 -10 -14 -10 -23 0 -10
-9 -23 -20 -30 -18 -11 -20 -10 -20 17 0 17 -7 34 -15 38 -9 6 -11 13 -5 23 8
12 10 12 16 -3 3 -9 16 -17 28 -17 18 0 17 4 -14 30 -19 16 -42 30 -50 29 -10
0 -11 -2 -2 -6 19 -7 14 -27 -11 -52 -15 -13 -30 -19 -40 -15 -12 4 -17 1 -17
-10 0 -10 9 -16 24 -16 27 0 41 -23 23 -39 -7 -5 -25 -11 -41 -13 -26 -3 -34
3 -53 40 -6 13 -43 -13 -43 -29 0 -16 5 -19 20 -14 22 7 25 -1 10 -25 -15 -24
-44 1 -52 46 -3 21 -4 1 -2 -46 2 -47 4 -98 4 -115 1 -62 22 -241 32 -277 12
-40 17 -45 34 -28 6 6 32 12 57 13 43 2 46 4 42 25 -2 13 -8 29 -14 36 -6 8
-4 19 9 36 17 23 19 23 43 7 25 -16 37 -14 37 10 0 7 -7 13 -16 13 -20 0 -13
20 12 34 27 15 35 28 30 48 -3 11 7 26 25 38 18 13 31 33 35 55 3 20 12 35 20
35 14 0 19 17 15 54 -1 11 4 23 11 27 9 6 8 11 -2 24 -12 15 -12 19 3 30 9 7
17 25 17 40 0 16 7 37 16 47 14 15 15 20 4 33 -11 13 -10 18 8 31 14 9 22 26
22 43 0 36 8 43 32 30 19 -10 19 -12 -11 -43 -34 -35 -40 -56 -16 -56 8 0 22
-11 31 -25 13 -20 14 -28 4 -40 -7 -9 -9 -23 -4 -37 5 -13 9 -72 9 -133 1 -60
5 -135 9 -165 3 -30 8 -84 10 -120 2 -36 7 -73 11 -83 4 -10 5 -47 2 -82 -4
-38 -1 -75 5 -93 9 -24 9 -36 -1 -55 -7 -14 -10 -30 -6 -36 7 -12 17 -66 16
-91 0 -8 -1 -64 -1 -124 -1 -71 -6 -122 -16 -144 -17 -42 -17 -42 1 -42 23 0
18 -16 -11 -39 -14 -11 -23 -25 -19 -31 3 -5 3 -16 -2 -22 -4 -7 -8 -29 -9
-49 0 -20 -6 -50 -13 -66 -11 -28 -15 -30 -42 -23 -34 10 -42 1 -33 -35 6 -23
-10 -38 -18 -15 -1 5 -17 14 -34 19 l-30 8 16 -46 c33 -97 105 -231 123 -231
13 0 17 -9 18 -37 2 -31 3 -33 6 -10 4 25 33 40 33 17 0 -5 9 -10 20 -10 11 0
20 4 20 9 0 11 -25 21 -51 21 -13 0 -19 7 -19 23 0 13 -5 28 -12 35 -8 8 -8
12 -1 12 6 0 16 -7 23 -15 7 -8 16 -15 21 -15 14 0 10 37 -4 43 -24 9 -8 67
20 78 43 16 63 -18 21 -36 -13 -6 -24 -18 -26 -27 -5 -25 35 -24 43 1 3 10 16
22 28 26 13 4 17 8 10 12 -7 2 -13 12 -13 22 0 9 -5 22 -12 29 -9 9 -8 12 5
12 15 0 17 6 11 35 -4 25 -2 39 10 50 9 9 16 26 16 38 0 12 3 33 7 46 5 20 3
23 -10 18 -13 -5 -14 -2 -6 23 6 16 17 31 25 34 19 7 18 32 -2 40 -10 4 -14
12 -10 23 4 10 -2 25 -16 40 -30 32 -13 49 28 28 16 -8 35 -15 42 -15 15 0 16
-26 1 -35 -6 -4 -8 -13 -5 -20 2 -7 -1 -18 -7 -24 -8 -8 -8 -11 1 -11 7 0 12
4 12 9 0 16 30 21 50 8 23 -14 27 -29 5 -21 -20 8 -19 -9 3 -36 21 -26 18 -80
-4 -80 -8 0 -14 -4 -14 -9 0 -16 21 -24 33 -12 8 8 16 6 29 -6 22 -19 24 -35
4 -27 -8 3 -19 -4 -26 -16 -9 -18 -8 -25 5 -40 12 -13 15 -27 10 -49 -6 -29
-5 -30 32 -33 30 -2 38 -7 38 -23 0 -13 -8 -21 -22 -23 -25 -4 -30 -17 -12
-28 6 -3 9 -19 5 -35 -5 -26 -3 -29 20 -29 17 0 28 -7 31 -19 3 -11 11 -22 19
-25 12 -5 12 -9 2 -26 -10 -15 -10 -22 0 -32 22 -22 14 -39 -15 -32 l-28 7 24
-26 c13 -15 28 -24 34 -20 5 3 7 0 5 -8 -3 -8 -13 -13 -22 -13 -9 1 -16 0 -16
-2 0 -7 25 -48 37 -62 19 -20 27 -61 14 -76 -8 -10 -8 -16 4 -26 24 -20 18
-33 -15 -27 -16 4 -32 2 -35 -3 -3 -6 1 -10 9 -10 18 0 22 -25 6 -35 -5 -3
-10 -13 -10 -21 0 -11 4 -12 19 -4 28 14 37 -5 17 -35 -19 -30 -24 -30 -48 -8
-10 9 -21 13 -25 9 -4 -4 -3 -10 3 -14 6 -4 16 -17 23 -30 9 -16 18 -21 32
-17 16 5 19 1 19 -24 0 -38 -21 -41 -44 -6 -9 14 -23 25 -32 25 -8 0 -20 14
-25 30 -12 33 -24 38 -32 16 -3 -8 3 -26 14 -39 21 -28 26 -52 7 -41 -13 9 -8
-1 41 -71 65 -94 74 -104 104 -114 25 -9 30 -8 34 9 3 11 12 20 20 20 8 0 17
9 20 20 3 11 9 20 14 20 5 0 9 5 9 11 0 7 7 17 17 24 9 7 13 17 9 23 -10 17
-26 15 -26 -3 0 -19 -26 -20 -34 0 -3 9 3 19 14 25 12 6 17 16 13 26 -3 8 1
20 9 27 25 19 27 53 7 86 -11 18 -19 48 -20 69 -1 50 -21 141 -39 172 -7 14
-15 47 -17 74 -1 27 -10 60 -18 72 -8 13 -15 33 -15 44 0 11 -7 32 -16 45 -10
15 -14 34 -10 49 4 16 -2 35 -20 61 -18 27 -22 41 -15 48 15 15 14 48 -3 66
-22 25 -24 91 -4 104 13 9 22 7 37 -7 12 -11 21 -26 21 -34 0 -14 31 -57 69
-97 11 -11 23 -32 26 -48 4 -15 16 -32 26 -38 11 -5 19 -15 19 -20 0 -6 14
-28 30 -49 16 -21 30 -43 30 -49 0 -6 9 -16 20 -23 11 -7 20 -17 20 -23 0 -10
62 -93 98 -130 11 -11 22 -30 26 -42 4 -13 15 -23 25 -23 10 0 27 -18 41 -42
13 -24 42 -60 65 -80 23 -21 48 -51 55 -68 7 -18 22 -33 37 -36 13 -4 28 -17
33 -30 5 -13 22 -31 37 -40 33 -21 72 -64 73 -80 0 -7 6 -15 13 -18 50 -25 72
-45 75 -68 2 -18 11 -28 26 -32 13 -3 26 -15 29 -26 3 -12 13 -20 27 -20 12 0
30 -10 41 -22 l19 -23 6 22 c3 12 14 25 25 28 11 4 16 12 12 21 -5 13 -8 13
-23 -1 -21 -19 -46 -11 -53 17 -4 15 -11 18 -26 13 -15 -4 -23 -1 -28 11 -4
10 -2 19 5 22 19 6 14 30 -7 37 -11 3 -23 15 -26 26 -4 11 -9 18 -12 15 -4 -3
-12 -1 -19 5 -8 6 -20 9 -28 6 -9 -4 -17 7 -25 34 -7 22 -18 39 -26 39 -17 0
-20 26 -5 35 13 8 13 25 1 25 -5 0 -13 -9 -16 -20 -3 -11 -10 -20 -14 -20 -12
0 -67 54 -74 73 -4 9 -18 22 -32 27 -14 5 -25 15 -25 22 0 7 -14 22 -30 33
-35 23 -41 50 -9 42 23 -6 21 -3 -53 77 -16 16 -28 34 -28 39 0 9 -25 37 -34
37 -3 0 -3 -7 0 -15 5 -11 2 -13 -10 -9 -17 7 -22 34 -6 34 6 0 10 7 10 15 0
8 -4 15 -10 15 -5 0 -10 -4 -10 -10 0 -5 -6 -10 -14 -10 -20 0 -29 30 -11 36
8 4 15 12 15 19 0 20 -23 24 -36 7 -16 -22 -37 -6 -23 19 11 21 4 59 -12 59
-5 0 -9 -7 -9 -15 0 -8 -5 -15 -11 -15 -7 0 -9 9 -6 22 7 27 -8 48 -36 48 -17
0 -19 5 -14 35 5 33 4 35 -19 29 -25 -6 -28 -2 -14 31 10 27 -14 55 -42 47
-18 -4 -20 -2 -16 22 4 22 1 29 -16 36 -17 6 -25 22 -33 62 -7 29 -16 69 -20
88 -8 32 -10 33 -15 12 -6 -20 -9 -22 -27 -12 -23 12 -27 25 -11 35 21 13 9
44 -25 64 -41 24 -52 45 -35 66 16 19 3 55 -21 55 -22 0 -24 -10 -6 -29 10
-10 8 -12 -8 -9 -22 4 -25 27 -11 86 5 21 4 32 -3 32 -6 0 -11 -7 -11 -15 0
-9 -11 -28 -25 -43 -22 -23 -27 -25 -35 -12 -15 24 -12 30 15 30 18 0 25 5 25
20 0 11 -6 20 -13 20 -7 0 -20 9 -30 20 -9 11 -24 20 -32 20 -8 0 -15 9 -15
20 0 13 -7 20 -20 20 -11 0 -20 4 -20 9 0 15 18 22 25 11 5 -8 11 -8 20 0 13
11 27 0 38 -32 4 -10 11 -18 17 -18 13 0 13 27 0 35 -17 10 -60 83 -60 100 0
11 -10 15 -35 15 -19 0 -35 -4 -35 -10 0 -5 5 -10 10 -10 6 0 10 -9 10 -20 0
-11 -6 -20 -14 -20 -22 0 -28 -17 -16 -39 8 -16 6 -22 -7 -29 -15 -9 -15 -12
-3 -27 13 -16 15 -16 27 1 10 13 13 14 13 3 0 -18 -33 -39 -47 -31 -18 11 -27
80 -13 97 10 13 10 19 -4 34 -17 19 -19 67 -3 89 5 6 18 12 28 12 24 0 24 12
0 34 -16 15 -18 23 -10 44 11 28 -3 45 -28 35 -14 -6 -17 15 -5 33 4 6 17 14
30 18 30 10 28 27 -8 61 -30 29 -39 68 -19 80 11 7 3 59 -14 86 -7 11 -6 22 1
35 9 16 6 23 -16 41 l-27 21 23 24 c28 30 30 58 3 51 -18 -5 -19 1 -17 108 3
93 6 114 21 125 18 13 15 44 -5 44 -17 0 -11 28 8 39 15 10 15 11 -5 17 -28 8
-30 20 -5 26 15 4 19 14 18 44 -1 22 -7 39 -13 39 -25 0 -24 15 0 24 25 10 26
13 22 66 -3 30 -1 64 5 75 10 19 -2 55 -24 71 -4 4 -3 10 4 14 6 4 17 -1 24
-11 12 -16 14 -13 14 24 1 30 -3 42 -14 42 -8 0 -14 9 -14 21 0 15 4 19 16 15
12 -5 15 -2 9 11 -17 42 -15 55 14 103 27 43 29 53 19 70 -7 11 -16 20 -20 20
-5 0 -8 5 -8 11 0 6 14 9 32 7 36 -3 52 20 19 29 -27 7 -27 26 0 38 24 11 53
82 37 91 -5 4 -3 13 5 22 19 22 31 61 29 95 -1 15 2 27 8 27 5 0 10 5 10 12 0
6 8 20 18 31 16 19 16 20 0 14 -22 -8 -22 -8 -3 30 9 17 22 34 30 37 11 4 14
13 9 31 -4 14 -1 32 6 40 7 8 10 31 8 51 -4 33 -1 39 33 61 28 19 36 29 32 46
-4 18 -3 20 7 7 9 -12 11 -10 6 12 -3 14 -9 33 -12 42 -5 12 0 14 29 9 48 -7
55 11 18 48 -17 17 -31 32 -31 35 0 10 29 3 32 -8 7 -21 35 0 41 31 4 20 13
31 23 31 13 0 15 6 11 29 -5 22 0 34 19 52 13 13 23 31 22 40 -2 9 5 26 16 38
14 16 23 18 37 10 32 -17 41 0 18 33 -18 25 -19 32 -8 39 8 5 21 9 30 9 15 0
49 63 49 93 0 19 19 32 42 29 12 -2 15 2 11 18 -3 11 -9 20 -14 20 -5 0 -9 9
-9 20 0 16 7 20 36 20 42 0 78 32 88 77 4 15 20 44 36 63 16 19 35 41 40 48 6
6 20 12 32 12 21 0 21 0 -2 25 -13 14 -22 25 -19 26 32 6 49 3 49 -8 0 -7 4
-13 9 -13 11 0 36 59 28 67 -4 3 -2 14 4 25 8 16 13 17 25 7 18 -15 26 -7 28
29 2 40 23 64 46 52 13 -7 22 -2 41 23 13 18 24 37 24 44 0 16 36 42 59 43 12
0 16 5 12 16 -3 8 -2 13 3 10 12 -8 47 35 56 69 6 21 9 25 12 13 6 -23 22 -22
52 2 18 16 22 26 17 50 -6 34 -4 36 28 14 29 -18 40 -6 31 35 -6 26 -3 29 30
34 38 6 90 41 90 60 0 7 14 11 33 10 22 -1 32 2 29 10 -5 16 15 35 44 39 13 1
29 14 36 28 12 24 13 25 13 3 0 -13 6 -23 14 -23 16 0 30 27 27 49 -2 13 0 13
14 1 15 -12 16 -10 13 16 -3 27 0 29 29 29 38 0 50 10 34 28 -9 11 -8 17 4 27
13 11 17 8 26 -19 11 -32 40 -44 33 -13 -5 20 49 82 72 82 9 0 18 9 21 20 4
13 14 20 29 20 17 0 28 8 36 28 l12 27 4 -27 c4 -30 30 -57 40 -42 4 5 19 15
34 23 15 8 30 22 34 33 3 10 11 18 18 18 7 0 25 9 40 21 15 12 35 19 46 16 11
-3 27 4 41 19 12 13 31 24 40 24 22 0 83 40 108 71 l18 23 12 -23 c10 -19 18
-21 44 -15 18 3 40 15 50 25 10 11 23 19 29 19 7 0 6 6 -2 15 -7 9 -19 14 -26
11 -23 -9 -26 12 -4 34 19 19 28 61 13 59 -5 0 -18 -13 -31 -30z m-118 -56 c9
-23 -12 -43 -24 -23 -5 8 -10 21 -10 28 0 18 27 15 34 -5z m-194 -99 c0 -19
-16 -18 -24 2 -11 27 -7 37 9 24 8 -7 15 -19 15 -26z m-45 -54 c3 -5 -1 -10
-9 -10 -9 0 -16 5 -16 10 0 6 4 10 9 10 6 0 13 -4 16 -10z m-485 -304 c0 -3
-4 -8 -10 -11 -5 -3 -10 -1 -10 4 0 6 5 11 10 11 6 0 10 -2 10 -4z m-760 -662
c0 -17 -22 -14 -28 4 -2 7 3 12 12 12 9 0 16 -7 16 -16z m-670 -764 c0 -5 -4
-10 -10 -10 -5 0 -10 5 -10 10 0 6 5 10 10 10 6 0 10 -4 10 -10z m-45 -120 c3
-5 1 -10 -4 -10 -6 0 -11 5 -11 10 0 6 2 10 4 10 3 0 8 -4 11 -10z m-110 -580
c-3 -5 -11 -10 -16 -10 -6 0 -7 5 -4 10 3 6 11 10 16 10 6 0 7 -4 4 -10z
m-475 -910 c0 -5 -4 -10 -10 -10 -5 0 -10 5 -10 10 0 6 5 10 10 10 6 0 10 -4
10 -10z m-20 -95 c0 -19 -32 -43 -37 -27 -3 6 -11 12 -19 12 -16 0 -19 17 -4
22 26 8 60 5 60 -7z m56 -41 c-3 -9 -6 -20 -6 -25 0 -5 -10 -9 -22 -9 -21 1
-21 2 -5 11 9 5 17 17 17 24 0 8 5 15 11 15 6 0 8 -7 5 -16z m-125 -14 c24
-14 25 -30 0 -30 -30 0 -51 11 -51 26 0 17 24 18 51 4z m-41 -74 c0 -8 -4 -18
-10 -21 -5 -3 -10 3 -10 14 0 12 5 21 10 21 6 0 10 -6 10 -14z m520 -371 c0
-16 -6 -25 -15 -25 -16 0 -19 9 -9 34 9 25 24 19 24 -9z m120 -300 c0 -8 -4
-15 -10 -15 -5 0 -10 7 -10 15 0 8 5 15 10 15 6 0 10 -7 10 -15z m0 -192 c0
-22 -2 -24 -15 -13 -13 10 -19 10 -35 -5 -19 -17 -21 -17 -40 0 -33 30 -24 41
35 42 53 1 55 0 55 -24z m30 -86 c0 -18 -2 -19 -10 -7 -13 20 -13 43 0 35 6
-3 10 -16 10 -28z m-163 -84 c-3 -10 -5 -4 -5 12 0 17 2 24 5 18 2 -7 2 -21 0
-30z m337 -29 c4 -10 1 -14 -6 -12 -15 5 -23 28 -10 28 5 0 13 -7 16 -16z
m-324 -84 c0 -5 -5 -10 -11 -10 -5 0 -7 5 -4 10 3 6 8 10 11 10 2 0 4 -4 4
-10z m-70 -125 c0 -8 -4 -15 -9 -15 -13 0 -22 16 -14 24 11 11 23 6 23 -9z
m356 -863 c-9 -9 -37 8 -31 18 5 8 11 7 21 -1 8 -6 12 -14 10 -17z m904 -42
c0 -5 -4 -10 -10 -10 -5 0 -10 5 -10 10 0 6 5 10 10 10 6 0 10 -4 10 -10z"/>
<path d="M12897 18363 c-4 -3 -7 -11 -7 -17 0 -6 5 -5 12 2 6 6 9 14 7 17 -3
3 -9 2 -12 -2z"/>
<path d="M13640 18351 c0 -6 5 -13 10 -16 6 -3 10 1 10 9 0 9 -4 16 -10 16 -5
0 -10 -4 -10 -9z"/>
<path d="M13742 18348 c-19 -19 -14 -26 14 -20 20 3 26 0 31 -17 3 -12 13 -21
24 -21 11 0 19 -7 19 -15 0 -8 7 -15 17 -15 15 0 15 1 0 18 -10 10 -17 26 -17
36 0 11 -6 16 -17 14 -12 -2 -17 3 -15 15 3 20 -37 24 -56 5z"/>
<path d="M13556 18341 c-4 -7 -5 -15 -2 -18 9 -9 19 4 14 18 -4 11 -6 11 -12
0z"/>
<path d="M13866 18342 c-12 -20 8 -50 43 -65 21 -10 43 -17 49 -17 16 0 15 17
0 23 -10 3 -10 8 1 21 14 17 16 16 32 -6 10 -12 20 -20 24 -16 3 3 -5 18 -19
33 -25 26 -27 27 -44 12 -24 -22 -39 -21 -52 3 -11 21 -25 26 -34 12z"/>
<path d="M12623 18325 c-8 -22 6 -33 17 -15 13 20 12 30 0 30 -6 0 -13 -7 -17
-15z"/>
<path d="M12180 18309 c0 -5 5 -7 10 -4 6 3 10 8 10 11 0 2 -4 4 -10 4 -5 0
-10 -5 -10 -11z"/>
<path d="M14080 18293 c0 -15 31 -46 38 -38 3 3 -4 15 -16 28 -12 12 -22 16
-22 10z"/>
<path d="M14146 18255 c3 -14 2 -31 -4 -38 -5 -6 -9 -23 -8 -37 1 -20 6 -25
31 -26 17 -1 49 7 73 18 51 24 64 17 33 -15 -13 -15 -19 -30 -15 -40 8 -22 23
-22 31 1 3 9 15 25 27 34 17 14 19 19 9 29 -7 7 -13 21 -13 31 0 25 -23 22
-71 -8 -54 -34 -65 -27 -33 19 22 33 23 37 6 28 -15 -8 -23 -6 -37 9 -25 27
-37 25 -29 -5z"/>
<path d="M14026 18251 c-46 -9 -44 -30 3 -29 27 0 41 5 41 14 0 18 -10 21 -44
15z"/>
<path d="M14410 18160 c0 -6 -10 -8 -24 -4 -18 4 -28 0 -39 -17 -20 -27 -14
-39 18 -39 14 0 48 -9 76 -19 28 -11 56 -18 63 -15 17 7 17 71 -1 85 -12 11
-14 8 -11 -16 4 -41 -16 -41 -40 0 -20 33 -42 47 -42 25z"/>
<path d="M14540 18112 c0 -6 5 -14 10 -17 14 -9 2 -46 -19 -62 -29 -21 -2 -27
39 -8 45 20 68 11 33 -12 -25 -17 -31 -43 -10 -43 7 0 23 9 35 20 22 20 52 27
52 11 0 -5 -9 -11 -20 -14 -14 -3 -20 -14 -20 -32 0 -22 4 -26 23 -23 13 2 22
10 22 20 0 25 11 31 33 17 17 -11 18 -15 6 -38 -21 -39 -18 -52 10 -45 16 4
25 1 30 -12 5 -13 14 -15 40 -11 36 6 46 -4 46 -44 0 -12 10 -21 28 -25 15 -4
30 -12 34 -17 4 -6 13 -4 23 6 13 13 21 15 36 6 17 -8 25 -5 49 21 17 18 30
33 30 35 0 1 -12 5 -26 8 -18 3 -24 1 -20 -9 3 -9 -2 -14 -14 -14 -14 0 -20 7
-20 21 0 33 -33 19 -42 -19 -5 -18 -13 -30 -18 -27 -13 8 -13 52 0 60 16 10
11 25 -8 25 -26 0 -34 11 -21 26 15 18 3 34 -27 34 -17 0 -24 -5 -24 -20 0
-23 -13 -26 -29 -6 -9 11 -10 20 -1 36 10 19 9 21 -17 18 -23 -2 -29 1 -31 20
-2 16 -10 22 -27 22 -13 0 -36 12 -50 26 -20 20 -32 24 -51 20 -20 -5 -31 0
-55 25 -16 17 -29 26 -29 21z"/>
<path d="M14415 18031 c-6 -11 9 -23 19 -14 9 9 7 23 -3 23 -6 0 -12 -4 -16
-9z"/>
<path d="M11730 17968 c0 -8 9 -14 20 -14 24 0 21 20 -3 24 -9 2 -17 -3 -17
-10z"/>
<path d="M14545 17970 c3 -5 8 -10 11 -10 2 0 4 5 4 10 0 6 -5 10 -11 10 -5 0
-7 -4 -4 -10z"/>
<path d="M10392 17858 c-15 -15 -16 -28 -2 -28 6 0 10 6 10 14 0 8 6 17 13 19
6 3 7 6 2 6 -6 1 -16 -4 -23 -11z"/>
<path d="M14815 17820 c-3 -5 -1 -10 4 -10 6 0 11 5 11 10 0 6 -2 10 -4 10 -3
0 -8 -4 -11 -10z"/>
<path d="M14993 17763 c-4 -10 -10 -21 -15 -24 -13 -8 2 -39 18 -39 8 0 14 5
14 10 0 7 6 7 20 0 10 -6 18 -16 16 -23 -1 -6 -1 -9 1 -4 9 15 34 6 44 -17 8
-16 17 -22 30 -19 20 6 26 37 9 48 -5 3 -10 19 -10 34 0 39 -17 51 -72 51 -37
0 -50 -4 -55 -17z"/>
<path d="M15168 17712 c-21 -4 -21 -8 -9 -48 5 -16 12 -46 16 -66 4 -29 11
-38 25 -38 11 0 25 -9 32 -20 14 -22 57 -18 71 7 11 18 27 17 27 -2 0 -8 -6
-15 -14 -15 -7 0 -16 -9 -19 -21 -4 -15 -2 -19 8 -15 24 9 48 -24 41 -56 -8
-39 15 -36 35 5 10 22 13 44 8 72 -4 22 -5 43 -2 47 2 4 -2 5 -10 2 -9 -3 -29
11 -50 37 l-36 42 -33 -16 c-35 -17 -55 -9 -45 17 4 9 13 12 27 9 18 -5 21 -2
18 18 -2 17 -10 24 -25 25 -13 1 -28 6 -35 11 -7 5 -21 8 -30 5z m94 -154
c-21 -21 -32 -3 -15 22 16 22 18 23 21 6 2 -10 -1 -23 -6 -28z"/>
<path d="M15412 17438 c-19 -19 -14 -29 11 -23 34 9 56 -19 33 -43 -9 -10 -16
-27 -15 -38 0 -17 1 -17 16 4 21 31 39 28 47 -8 4 -20 11 -30 24 -30 10 0 23
-5 30 -12 8 -8 15 -8 27 2 23 19 18 33 -10 26 -23 -6 -25 -3 -25 24 0 24 -4
30 -21 30 -15 0 -19 5 -14 19 12 38 -73 79 -103 49z"/>
<path d="M15612 17268 c3 -7 13 -15 22 -16 12 -3 17 1 14 10 -3 7 -13 15 -22
16 -12 3 -17 -1 -14 -10z"/>
<path d="M15582 17208 c6 -18 28 -21 28 -4 0 9 -7 16 -16 16 -9 0 -14 -5 -12
-12z"/>
<path d="M15655 17210 c-6 -10 15 -50 27 -50 17 0 17 21 -1 39 -11 11 -23 16
-26 11z"/>
<path d="M15740 17150 c0 -5 4 -10 9 -10 6 0 13 5 16 10 3 6 -1 10 -9 10 -9 0
-16 -4 -16 -10z"/>
<path d="M15680 17115 c0 -8 7 -15 15 -15 8 0 15 7 15 15 0 8 -7 15 -15 15 -8
0 -15 -7 -15 -15z"/>
<path d="M15730 17065 c7 -8 16 -15 20 -15 4 0 10 7 14 15 4 11 -2 15 -21 15
-21 0 -24 -2 -13 -15z"/>
<path d="M15790 17011 c0 -26 16 -35 24 -15 10 25 7 34 -9 34 -8 0 -15 -9 -15
-19z"/>
<path d="M15850 16925 c0 -8 4 -15 10 -15 5 0 7 7 4 15 -4 8 -8 15 -10 15 -2
0 -4 -7 -4 -15z"/>
<path d="M9680 16909 c0 -5 5 -7 10 -4 6 3 10 8 10 11 0 2 -4 4 -10 4 -5 0
-10 -5 -10 -11z"/>
<path d="M10250 16570 c0 -5 5 -10 10 -10 6 0 10 5 10 10 0 6 -4 10 -10 10 -5
0 -10 -4 -10 -10z"/>
<path d="M9441 16394 c0 -11 3 -14 6 -6 3 7 2 16 -1 19 -3 4 -6 -2 -5 -13z"/>
<path d="M18515 16114 c-60 -13 -118 -28 -127 -34 -10 -5 -26 -10 -35 -11 -10
0 -31 -9 -48 -19 -16 -10 -48 -28 -70 -40 -64 -35 -112 -76 -241 -205 -110
-110 -178 -193 -263 -317 -18 -27 -36 -48 -40 -48 -4 0 -16 10 -27 21 -25 28
-132 109 -143 109 -5 0 -11 6 -14 13 -3 6 -22 21 -43 32 -22 10 -51 28 -66 38
-16 10 -28 15 -28 11 0 -3 -6 -1 -14 5 -25 21 -189 78 -250 87 -16 2 -43 8
-60 12 -75 21 -284 -2 -421 -45 -65 -20 -195 -84 -195 -95 0 -5 -4 -7 -8 -4
-8 5 -79 -38 -92 -54 -3 -4 -20 -15 -37 -25 -18 -11 -33 -23 -33 -27 0 -4 -4
-8 -9 -8 -22 0 -221 -212 -221 -234 0 -3 -14 -26 -30 -53 -36 -58 -100 -217
-100 -249 0 -13 -5 -26 -10 -29 -6 -4 -8 -11 -4 -16 3 -5 1 -15 -5 -22 -5 -7
-9 -21 -7 -30 1 -10 -3 -46 -10 -79 -31 -149 4 -468 73 -668 46 -134 170 -370
195 -370 4 0 8 -6 8 -12 0 -13 32 -53 118 -148 171 -189 301 -319 407 -405 20
-16 46 -38 58 -48 12 -11 34 -25 50 -33 15 -8 27 -19 27 -24 0 -6 7 -10 15
-10 8 0 15 -5 15 -11 0 -5 5 -7 10 -4 6 3 10 2 10 -3 0 -10 134 -102 148 -102
5 0 17 -9 27 -20 10 -11 22 -20 28 -20 5 0 35 -15 66 -34 82 -50 438 -226 457
-226 2 0 23 -9 47 -19 67 -30 198 -82 216 -86 9 -2 68 -21 131 -43 63 -22 142
-47 175 -56 33 -10 71 -22 85 -26 43 -15 114 -34 128 -33 6 0 18 1 25 2 12 1
91 61 198 151 54 46 64 56 235 221 103 99 264 271 291 308 8 12 26 34 40 49
14 15 39 47 56 72 17 25 34 46 38 48 4 2 22 27 40 55 18 29 40 59 48 68 9 8
40 53 70 100 30 46 62 96 72 111 11 15 19 30 19 34 0 3 9 18 19 33 32 45 223
413 220 423 -1 5 14 42 37 96 13 29 24 58 24 65 0 7 4 17 8 23 12 13 64 190
66 222 1 15 4 32 8 37 9 15 17 82 25 200 7 118 7 109 0 255 -8 146 -64 390
-98 424 -5 6 -9 17 -9 25 0 33 -91 193 -159 281 -47 61 -210 219 -243 236 -16
8 -28 20 -28 26 0 6 -3 8 -6 5 -4 -4 -19 2 -34 13 -16 11 -31 20 -34 20 -3 0
-28 13 -56 30 -27 16 -50 27 -50 25 0 -3 -11 2 -25 11 -14 9 -25 13 -25 10 0
-4 -10 -1 -22 6 -13 6 -27 13 -33 14 -5 1 -44 10 -85 19 -123 28 -340 27 -475
-1z"/>
<path d="M15065 15409 c-27 -4 -108 -25 -180 -44 -250 -70 -599 -145 -925
-200 -294 -49 -371 -77 -418 -148 -24 -36 -27 -51 -27 -121 0 -71 4 -87 28
-129 28 -47 88 -99 137 -119 43 -18 151 -10 265 18 142 35 262 38 295 9 41
-37 85 -151 106 -275 3 -14 18 -99 35 -190 30 -164 40 -213 182 -855 169 -768
169 -767 169 -849 0 -62 -4 -84 -20 -105 -29 -40 -89 -68 -182 -86 -226 -43
-318 -79 -359 -141 -22 -31 -25 -48 -25 -118 0 -66 5 -91 26 -137 32 -69 70
-98 151 -111 65 -11 156 1 277 35 30 9 96 27 145 41 50 13 140 38 200 56 61
17 166 40 235 52 69 11 188 31 265 44 77 14 156 27 175 30 94 13 236 47 275
65 58 27 85 59 101 119 25 97 -12 212 -89 273 -60 49 -139 48 -337 -6 -59 -16
-100 -21 -169 -18 -36 1 -49 7 -76 36 -38 40 -71 104 -91 178 -14 49 -47 213
-150 732 -25 127 -58 284 -74 350 -65 286 -114 491 -152 645 -45 181 -58 308
-36 350 31 59 111 90 323 125 57 10 126 34 158 57 36 26 85 112 93 165 16 108
-33 209 -120 248 -60 27 -142 36 -211 24z"/>
<path d="M9450 15124 c0 -8 5 -12 10 -9 6 3 10 10 10 16 0 5 -4 9 -10 9 -5 0
-10 -7 -10 -16z"/>
<path d="M9230 14946 c0 -9 5 -16 10 -16 6 0 10 4 10 9 0 6 -4 13 -10 16 -5 3
-10 -1 -10 -9z"/>
<path d="M9215 14841 c-6 -11 9 -23 19 -14 9 9 7 23 -3 23 -6 0 -12 -4 -16 -9z"/>
<path d="M9172 14820 c0 -14 2 -19 5 -12 2 6 2 18 0 25 -3 6 -5 1 -5 -13z"/>
<path d="M9440 14431 c0 -6 5 -13 10 -16 6 -3 10 1 10 9 0 9 -4 16 -10 16 -5
0 -10 -4 -10 -9z"/>
<path d="M9860 14044 c0 -8 5 -12 10 -9 6 3 10 10 10 16 0 5 -4 9 -10 9 -5 0
-10 -7 -10 -16z"/>
<path d="M9890 14000 c0 -5 5 -10 10 -10 6 0 10 5 10 10 0 6 -4 10 -10 10 -5
0 -10 -4 -10 -10z"/>
<path d="M9910 13969 c0 -5 5 -7 10 -4 6 3 10 8 10 11 0 2 -4 4 -10 4 -5 0
-10 -5 -10 -11z"/>
<path d="M9955 13930 c3 -5 8 -10 11 -10 2 0 4 5 4 10 0 6 -5 10 -11 10 -5 0
-7 -4 -4 -10z"/>
<path d="M9835 13490 c-3 -5 -1 -10 4 -10 6 0 11 5 11 10 0 6 -2 10 -4 10 -3
0 -8 -4 -11 -10z"/>
<path d="M9591 13426 c-8 -9 -11 -19 -7 -23 9 -9 29 13 24 27 -2 8 -8 7 -17
-4z"/>
<path d="M9800 13310 c0 -5 5 -10 11 -10 5 0 7 5 4 10 -3 6 -8 10 -11 10 -2 0
-4 -4 -4 -10z"/>
<path d="M10015 13030 c-3 -5 -1 -10 4 -10 6 0 11 5 11 10 0 6 -2 10 -4 10 -3
0 -8 -4 -11 -10z"/>
<path d="M9720 12969 c0 -5 5 -7 10 -4 6 3 10 8 10 11 0 2 -4 4 -10 4 -5 0
-10 -5 -10 -11z"/>
<path d="M10026 12785 c4 -8 8 -15 10 -15 2 0 4 7 4 15 0 8 -4 15 -10 15 -5 0
-7 -7 -4 -15z"/>
<path d="M10686 12715 c4 -8 11 -15 16 -15 6 0 5 6 -2 15 -7 8 -14 15 -16 15
-2 0 -1 -7 2 -15z"/>
<path d="M9925 12610 c-4 -6 -11 -7 -17 -4 -8 5 -9 1 -5 -10 4 -10 7 -20 7
-22 0 -2 3 -4 8 -4 12 0 32 39 22 45 -5 3 -11 1 -15 -5z"/>
<path d="M10726 12375 c-3 -8 -12 -12 -21 -9 -24 9 -18 -14 8 -31 18 -12 23
-23 21 -50 -3 -30 0 -35 19 -35 16 0 27 -12 41 -40 11 -22 25 -40 32 -40 6 0
15 -11 18 -25 7 -26 51 -55 84 -55 10 0 27 6 37 14 17 12 18 17 6 39 -18 33
-6 54 18 33 19 -17 31 -12 31 12 0 8 -6 12 -14 9 -8 -3 -18 5 -25 19 -6 13
-18 24 -27 24 -10 0 -14 5 -11 15 6 14 -4 17 -83 29 -10 1 -14 11 -12 28 2 22
-1 25 -17 21 -10 -2 -22 0 -25 6 -4 6 -16 11 -28 11 -11 0 -22 8 -25 20 -6 24
-19 26 -27 5z m168 -151 c9 -3 16 -13 16 -20 0 -8 7 -26 16 -39 19 -29 17 -30
-24 -9 -39 19 -45 28 -37 54 7 22 7 22 29 14z"/>
<path d="M11115 12243 c-48 -10 -50 -14 -17 -29 19 -7 55 -34 81 -59 27 -25
58 -53 69 -61 39 -27 26 11 -16 48 -20 18 -46 50 -57 71 -11 20 -24 36 -30 36
-5 -1 -19 -3 -30 -6z"/>
<path d="M11033 12152 c-29 -3 -33 -7 -33 -33 0 -16 5 -29 10 -29 6 0 10 5 10
10 0 6 3 9 8 8 11 -3 52 13 52 20 -1 18 -18 27 -47 24z"/>
<path d="M11077 12096 c-3 -8 -3 -24 0 -36 4 -16 -3 -28 -27 -48 -38 -32 -39
-69 -2 -65 13 2 25 -4 28 -12 10 -25 34 -17 34 10 0 26 -14 33 -26 14 -4 -7
-10 -7 -16 -1 -13 13 7 50 39 75 28 22 29 38 5 60 -23 21 -28 21 -35 3z"/>
<path d="M10990 12059 c0 -7 -10 -9 -25 -7 -16 4 -25 1 -25 -8 0 -13 11 -18
70 -29 29 -6 33 -5 23 6 -7 7 -13 21 -13 31 0 10 -7 18 -15 18 -8 0 -15 -5
-15 -11z"/>
<path d="M11300 12050 c13 -24 78 -75 87 -67 10 11 -6 37 -30 46 -12 5 -29 16
-36 25 -19 23 -34 20 -21 -4z"/>
<path d="M11127 12010 c-18 -29 -18 -30 2 -30 26 0 28 -26 4 -52 -13 -15 -15
-23 -6 -36 14 -24 39 -22 36 3 -2 11 3 30 9 43 9 17 9 25 0 34 -7 7 -12 25
-12 40 0 36 -11 36 -33 -2z"/>
<path d="M11196 12001 c-4 -7 -5 -15 -2 -18 9 -9 19 4 14 18 -4 11 -6 11 -12
0z"/>
<path d="M20063 11989 c-17 -5 -41 -21 -52 -35 -18 -23 -20 -36 -15 -113 4
-76 1 -105 -34 -255 -38 -160 -42 -171 -76 -203 -20 -19 -36 -38 -36 -43 0
-17 45 -38 72 -35 109 13 180 39 192 71 8 21 -9 42 -37 46 -25 3 -35 41 -17
63 21 25 170 49 203 33 18 -9 24 -58 7 -58 -5 0 -14 -9 -20 -21 -28 -52 49
-63 202 -29 95 21 142 41 151 65 8 19 -2 45 -17 46 -48 3 -43 -1 -159 157
-195 268 -275 336 -364 311z m96 -286 c23 -27 41 -53 41 -60 0 -6 -23 -16 -50
-22 -83 -18 -83 -18 -75 42 8 55 20 87 35 87 4 0 27 -21 49 -47z"/>
<path d="M11207 11964 c-13 -13 -7 -24 14 -24 11 0 19 5 17 12 -5 14 -22 21
-31 12z"/>
<path d="M11420 11940 c-13 -8 -12 -10 3 -10 9 0 17 5 17 10 0 12 -1 12 -20 0z"/>
<path d="M11260 11901 c0 -11 5 -23 11 -26 5 -4 15 -18 20 -32 8 -22 11 -23
26 -12 14 12 18 11 27 -5 38 -63 65 -75 46 -19 -11 29 -45 53 -75 53 -8 0 -15
9 -15 20 0 10 -9 24 -20 30 -17 9 -20 8 -20 -9z"/>
<path d="M11206 11864 c-8 -21 -9 -18 13 -42 10 -12 23 -22 30 -22 13 0 14 5
2 28 -5 9 -12 25 -15 35 -7 21 -22 22 -30 1z"/>
<path d="M19465 11834 c-32 -8 -70 -21 -82 -29 -24 -16 -32 -59 -13 -70 17
-11 11 -45 -17 -97 -20 -37 -32 -48 -47 -46 -17 2 -22 11 -24 50 -2 28 3 59
12 77 14 27 14 31 0 45 -21 22 -94 20 -177 -3 -104 -29 -138 -74 -78 -105 35
-18 52 -59 79 -186 36 -166 37 -204 12 -245 -30 -48 -16 -65 54 -65 64 0 192
33 217 56 28 25 23 51 -11 69 -31 16 -44 46 -38 86 5 40 32 32 118 -33 45 -35
91 -69 101 -77 17 -12 34 -12 121 4 102 19 128 32 128 65 0 21 -35 50 -60 50
-20 0 -272 196 -287 223 -10 18 -7 30 14 69 32 59 55 80 100 93 44 12 63 37
47 63 -15 23 -90 26 -169 6z"/>
<path d="M11300 11770 c0 -5 5 -10 10 -10 6 0 10 5 10 10 0 6 -4 10 -10 10 -5
0 -10 -4 -10 -10z"/>
<path d="M11353 11743 c-15 -5 -17 -23 -4 -23 5 0 11 7 15 15 3 8 4 15 3 14
-1 0 -8 -3 -14 -6z"/>
<path d="M11465 11711 c-3 -5 -1 -12 5 -16 5 -3 10 1 10 9 0 18 -6 21 -15 7z"/>
<path d="M18643 11700 c-63 -15 -143 -62 -185 -109 -138 -154 -88 -406 100
-498 50 -24 68 -28 147 -28 81 0 97 4 157 33 127 62 206 186 194 306 -18 173
-161 308 -324 305 -31 -1 -71 -4 -89 -9z m52 -146 c84 -40 178 -233 149 -309
-9 -23 -61 -47 -87 -39 -48 14 -124 110 -160 202 -21 52 -21 84 -2 122 22 43
48 49 100 24z"/>
<path d="M17900 11548 c-113 -24 -166 -55 -158 -94 2 -10 17 -22 35 -28 18 -6
39 -18 46 -26 19 -20 91 -364 83 -395 -3 -13 -15 -29 -26 -35 -26 -14 -27 -56
-1 -63 11 -2 91 10 179 29 88 18 188 36 223 39 35 4 69 11 76 17 7 5 20 34 30
64 14 45 14 60 4 94 -15 52 -55 75 -77 45 -8 -10 -14 -27 -14 -37 0 -33 -28
-75 -57 -86 -54 -20 -65 -22 -88 -16 -32 8 -48 52 -85 239 l-31 158 32 33 c26
27 29 35 20 53 -19 35 -60 37 -191 9z"/>
<path d="M17561 11473 c-19 -8 -122 -32 -229 -54 -107 -21 -201 -44 -209 -51
-18 -15 -13 -49 10 -59 9 -5 25 -13 35 -17 31 -15 83 -199 97 -348 6 -66 5
-72 -19 -101 -31 -36 -32 -49 -8 -62 13 -7 79 3 232 35 118 24 233 44 257 44
38 0 44 4 59 32 9 17 18 56 21 87 5 68 -12 106 -47 106 -16 0 -28 -8 -36 -25
-6 -14 -18 -38 -25 -55 -18 -36 -77 -71 -136 -80 -65 -10 -80 -1 -98 57 -20
69 -19 95 5 108 30 16 59 3 77 -36 17 -35 40 -43 61 -22 20 20 14 131 -9 193
-33 89 -89 98 -89 14 0 -40 -18 -59 -58 -59 -27 0 -41 20 -51 76 -13 65 3 89
61 100 70 12 120 5 155 -22 35 -27 53 -30 71 -12 28 28 2 123 -42 153 -25 18
-41 18 -85 -2z"/>
<path d="M16748 11311 c-146 -48 -240 -171 -241 -316 -1 -58 4 -80 28 -128 50
-102 142 -168 252 -183 93 -12 152 2 249 60 82 49 89 55 103 99 24 79 -18 128
-65 76 -59 -66 -182 -83 -253 -36 -71 47 -126 176 -101 236 20 50 53 73 103
73 53 0 88 -17 140 -66 37 -36 45 -40 82 -37 28 3 65 47 65 79 -1 36 -32 104
-61 130 -18 18 -33 21 -78 20 -31 -2 -81 1 -111 5 -42 5 -69 2 -112 -12z"/>
<path d="M16105 11178 c-38 -11 -119 -31 -180 -44 -60 -14 -120 -32 -132 -40
-33 -21 -28 -49 12 -73 43 -25 50 -43 81 -201 32 -162 34 -210 6 -244 -50 -64
22 -92 164 -64 124 25 180 79 115 112 -23 12 -34 28 -46 68 -20 68 -19 107 2
115 30 12 66 -21 106 -97 44 -86 60 -106 101 -127 58 -30 200 8 223 60 14 29
6 43 -37 65 -24 12 -39 32 -55 72 -23 54 -66 100 -96 100 -8 0 -24 6 -35 14
-18 14 -18 15 10 45 24 25 30 42 34 88 3 48 0 64 -20 93 -46 69 -139 90 -253
58z m21 -111 c22 -19 28 -34 31 -78 5 -64 -9 -89 -51 -92 l-30 -2 -13 85 c-12
78 -12 86 4 97 23 17 28 17 59 -10z"/>
<path d="M15310 11017 c-49 -17 -73 -63 -61 -116 12 -55 6 -109 -34 -282 -33
-142 -52 -199 -65 -199 -3 0 -16 -9 -28 -20 -18 -17 -20 -25 -12 -40 13 -25
80 -27 165 -5 71 19 105 47 89 72 -6 10 -22 20 -35 23 -27 7 -38 43 -19 65 14
16 133 44 175 41 43 -4 43 -4 50 -27 5 -14 -1 -27 -20 -45 -26 -24 -26 -26
-10 -45 23 -25 82 -25 191 0 113 25 159 49 159 81 0 20 -7 27 -34 35 -28 8
-54 37 -146 160 -137 184 -217 272 -270 296 -47 22 -49 22 -95 6z m99 -282
c22 -24 41 -51 41 -59 0 -18 -107 -43 -121 -29 -9 9 1 78 16 121 7 21 21 14
64 -33z"/>
<path d="M14590 10861 c-96 -21 -185 -41 -197 -45 -43 -14 -37 -76 8 -76 10 0
25 -10 33 -22 18 -29 54 -212 62 -322 6 -76 5 -87 -14 -111 -22 -28 -20 -50 7
-65 21 -11 420 68 467 93 53 27 102 90 109 141 4 25 4 57 1 70 -10 40 -53 83
-101 102 -25 9 -45 20 -45 25 0 5 10 27 21 49 50 95 -24 202 -136 199 -22 -1
-119 -18 -215 -38z m135 -95 c48 -48 42 -129 -11 -142 -32 -8 -38 1 -54 78
-16 86 13 115 65 64z m79 -256 c10 -10 20 -38 23 -64 7 -55 -14 -86 -57 -86
-29 0 -38 15 -59 95 -15 56 -14 64 12 75 27 11 56 4 81 -20z"/>
<path d="M18560 8325 c0 -8 5 -15 10 -15 6 0 10 7 10 15 0 8 -4 15 -10 15 -5
0 -10 -7 -10 -15z"/>
<path d="M18470 8221 c0 -5 -13 -11 -30 -14 -34 -7 -41 -27 -10 -27 11 0 20 4
20 9 0 5 9 11 20 14 20 5 28 27 10 27 -5 0 -10 -4 -10 -9z"/>
<path d="M18405 8151 c-3 -5 -1 -12 5 -16 5 -3 10 1 10 9 0 18 -6 21 -15 7z"/>
<path d="M18306 8045 c-5 -18 -15 -27 -36 -32 -23 -4 -30 -11 -30 -29 0 -12
-4 -26 -10 -29 -17 -11 -12 -37 5 -27 17 9 105 122 105 135 0 19 -29 4 -34
-18z"/>
<path d="M18158 7891 c-2 -18 -9 -26 -23 -27 -11 -1 -28 -2 -37 -3 -10 -1 -18
-8 -18 -16 0 -8 -4 -15 -10 -15 -5 0 -10 -9 -10 -19 0 -32 -11 -50 -26 -44 -8
3 -14 1 -14 -4 0 -5 -20 -22 -45 -37 -24 -16 -42 -33 -39 -37 17 -29 -41 -80
-64 -57 -8 8 -13 7 -18 -6 -4 -10 -2 -22 5 -29 19 -19 13 -26 -26 -29 -30 -2
-39 -8 -41 -24 -2 -11 4 -27 13 -34 19 -16 55 -21 55 -8 0 16 72 98 85 98 7 0
20 16 29 35 9 19 29 40 44 47 15 7 28 23 30 36 2 12 10 22 18 22 7 0 25 17 38
39 13 21 43 54 65 73 47 40 53 66 17 66 -19 0 -26 -6 -28 -27z"/>
<path d="M15560 7820 c0 -5 5 -10 10 -10 6 0 10 5 10 10 0 6 -4 10 -10 10 -5
0 -10 -4 -10 -10z"/>
<path d="M16002 7688 c7 -19 38 -22 38 -4 0 10 -9 16 -21 16 -12 0 -19 -5 -17
-12z"/>
<path d="M15795 7661 c-23 -12 -26 -16 -13 -19 10 -2 25 4 34 13 22 22 15 24
-21 6z"/>
<path d="M15840 7650 c0 -5 5 -10 11 -10 5 0 7 5 4 10 -3 6 -8 10 -11 10 -2 0
-4 -4 -4 -10z"/>
<path d="M15826 7613 c-13 -14 -5 -41 15 -46 18 -5 20 -11 14 -36 -7 -32 2
-40 23 -19 18 18 15 42 -8 56 -11 7 -20 19 -20 26 0 17 -14 28 -24 19z"/>
<path d="M16110 7600 c0 -5 9 -14 20 -20 12 -6 25 -22 30 -36 11 -28 30 -32
30 -6 -1 21 -18 43 -48 60 -26 15 -32 15 -32 2z"/>
<path d="M15948 7529 c-10 -10 -15 -25 -12 -34 4 -10 0 -15 -10 -15 -29 0 -17
-18 20 -30 27 -9 39 -9 47 -1 9 9 6 13 -11 17 -28 8 -29 40 0 47 18 5 19 8 8
21 -16 20 -21 19 -42 -5z"/>
<path d="M17761 7499 c-18 -15 -27 -17 -37 -8 -10 8 -15 5 -20 -18 -4 -15 -13
-35 -20 -44 -8 -9 -13 -27 -12 -40 2 -19 -4 -27 -29 -39 -19 -9 -33 -23 -33
-33 0 -10 -8 -21 -17 -24 -10 -4 -26 -17 -36 -29 -9 -13 -30 -24 -45 -26 -16
-2 -27 -9 -27 -18 -1 -24 -16 -42 -31 -36 -16 6 -50 -24 -37 -33 14 -10 12
-59 -2 -65 -8 -3 -17 -1 -20 4 -4 6 -13 10 -22 10 -11 0 -14 -6 -9 -25 5 -21
2 -27 -18 -35 -31 -11 -41 -27 -27 -44 13 -15 5 -26 -19 -26 -10 0 -23 -7 -30
-15 -10 -12 -16 -13 -27 -4 -17 15 -17 15 -37 -47 -16 -50 -52 -84 -74 -70 -5
3 -7 -5 -4 -19 3 -18 0 -25 -12 -25 -9 0 -16 4 -16 9 0 5 -25 13 -56 17 -41 5
-62 13 -80 33 -27 29 -30 47 -11 54 7 4 6 6 -5 6 -9 1 -18 7 -21 14 -3 10 -9
10 -26 0 -28 -17 -30 -17 -41 13 -7 18 -7 31 0 39 15 18 -4 29 -29 15 -30 -16
-43 -12 -39 13 2 16 -2 21 -13 19 -11 -1 -19 7 -23 23 -4 17 -13 25 -27 25
-17 0 -20 5 -16 21 5 17 2 20 -17 15 -15 -4 -25 1 -34 14 -16 26 -38 25 -53
-2 -9 -17 -9 -23 1 -26 7 -3 21 -13 30 -22 10 -10 29 -20 42 -22 17 -2 22 -8
20 -25 -2 -17 2 -23 16 -23 21 0 47 -25 47 -46 0 -7 16 -23 35 -36 47 -32 49
-51 4 -77 -20 -12 -38 -21 -39 -19 -1 2 -8 13 -14 26 -6 12 -17 22 -24 22 -7
0 -18 13 -24 29 -7 20 -20 31 -42 36 -28 6 -45 35 -21 35 6 0 10 5 10 11 0 6
-7 9 -15 6 -8 -4 -17 -1 -21 4 -4 6 -20 8 -40 5 -32 -7 -33 -6 -28 26 4 29 0
36 -32 61 -21 15 -48 27 -61 27 -13 0 -23 6 -23 14 0 7 -11 25 -24 39 -13 14
-26 31 -28 38 -3 10 -13 9 -40 -4 -46 -22 -61 -22 -54 1 8 23 -38 70 -49 52
-7 -11 -26 -9 -79 7 -11 3 -17 1 -14 -7 2 -6 6 -10 10 -8 3 2 18 -8 32 -21 18
-17 24 -31 20 -44 -5 -15 -3 -19 9 -14 15 6 57 -26 57 -43 0 -5 10 -10 22 -12
16 -2 24 -12 28 -33 3 -19 12 -31 25 -33 28 -5 66 -42 63 -61 -2 -10 3 -15 13
-13 9 1 24 -9 33 -23 19 -29 33 -31 58 -8 14 12 24 14 35 7 23 -14 12 -29 -19
-25 -16 1 -28 -2 -28 -7 0 -18 12 -42 21 -42 5 0 29 -21 54 -46 28 -28 51 -44
60 -40 11 4 15 -2 15 -19 0 -21 5 -25 30 -25 25 0 30 -4 30 -25 0 -16 6 -25
15 -25 8 0 15 -4 15 -9 0 -4 18 -31 40 -58 39 -49 94 -148 93 -168 -3 -88 -13
-195 -20 -215 -5 -14 -8 -50 -7 -80 1 -30 -3 -70 -10 -88 -10 -32 -9 -35 24
-63 42 -34 62 -38 32 -6 -12 13 -22 31 -22 40 0 21 42 40 52 24 11 -17 16 -6
20 40 3 24 7 46 11 50 12 12 7 36 -10 49 -17 12 -17 14 5 29 12 9 22 23 22 32
0 11 6 14 21 10 18 -5 20 -2 15 20 -6 20 -3 24 11 21 13 -2 19 -14 21 -46 3
-39 5 -42 25 -36 38 12 66 35 69 56 5 34 31 44 56 22 12 -10 22 -26 22 -35 0
-8 3 -19 7 -23 14 -14 31 -76 21 -82 -5 -3 -4 -11 2 -19 7 -8 9 -22 6 -32 -4
-13 1 -21 17 -28 17 -8 22 -19 24 -50 4 -101 -1 -95 38 -53 37 39 36 52 -2
133 -7 17 -15 56 -17 86 -1 30 -5 59 -8 65 -4 5 -9 52 -13 104 -3 52 -11 112
-17 132 -8 29 -8 41 2 53 11 13 10 19 -4 33 -9 10 -16 28 -16 40 0 19 -4 21
-24 16 -18 -4 -30 0 -42 15 -10 11 -21 18 -26 15 -4 -3 -17 0 -28 6 -17 9 -20
8 -20 -9 0 -14 -5 -19 -15 -15 -21 9 -19 31 6 52 12 9 27 23 34 30 8 6 23 12
34 12 12 0 33 18 55 48 40 53 42 55 73 81 25 20 123 140 123 150 0 3 13 12 29
19 16 7 31 22 34 33 3 11 15 23 26 26 14 3 21 13 21 28 0 15 6 22 17 21 11 -1
20 10 26 31 5 18 18 35 28 38 11 4 24 15 29 26 6 10 17 19 25 19 8 0 15 4 15
8 0 4 16 26 36 48 57 61 104 125 104 141 0 8 -6 20 -13 27 -11 11 -17 10 -36
-5z m-29 -71 c-6 -6 -15 -8 -19 -4 -4 4 -1 11 7 16 19 12 27 3 12 -12z m-1343
-324 c-12 -14 -39 -19 -39 -8 0 11 34 33 43 27 4 -3 3 -11 -4 -19z m101 -49
c0 -8 -4 -15 -10 -15 -5 0 -10 7 -10 15 0 8 5 15 10 15 6 0 10 -7 10 -15z m0
-64 c0 -6 -4 -13 -10 -16 -5 -3 -10 1 -10 9 0 9 5 16 10 16 6 0 10 -4 10 -9z
m430 -95 c0 -3 -4 -8 -10 -11 -5 -3 -10 -1 -10 4 0 6 5 11 10 11 6 0 10 -2 10
-4z m-305 -16 c3 -5 -1 -10 -10 -10 -9 0 -13 5 -10 10 3 6 8 10 10 10 2 0 7
-4 10 -10z m285 -35 c0 -14 5 -25 11 -25 19 0 89 -65 89 -84 0 -12 5 -16 15
-12 18 6 19 1 5 -24 -10 -19 -12 -19 -45 -3 -23 11 -35 24 -36 37 0 12 -3 15
-6 9 -7 -18 -43 -16 -43 2 0 8 -8 15 -19 15 -10 0 -21 9 -24 19 -3 14 -11 18
-26 14 -12 -3 -21 -1 -21 6 0 6 7 11 15 11 8 0 24 14 37 30 27 37 48 39 48 5z
m111 -215 c23 -13 24 -28 2 -52 -15 -17 -17 -17 -35 -2 -21 20 -23 35 -6 52
15 15 15 15 39 2z m-58 -68 c13 -14 14 -21 5 -30 -21 -21 -38 -13 -38 18 0 34
10 38 33 12z m216 -8 c14 -32 9 -41 -12 -19 -9 8 -25 15 -36 15 -23 0 -28 15
-8 23 27 12 44 6 56 -19z m-155 -42 c-6 -9 -19 -18 -28 -20 -22 -5 -21 34 2
47 23 13 40 -4 26 -27z m-67 -62 c0 -43 -10 -51 -26 -22 -7 14 -6 25 5 40 8
12 17 22 18 22 2 0 3 -18 3 -40z m33 -111 c0 -11 -5 -29 -11 -40 -8 -16 -13
-18 -24 -9 -12 10 -12 16 1 41 17 34 34 38 34 8z"/>
<path d="M16224 7476 c7 -12 20 -21 27 -21 8 0 15 9 17 21 2 17 -2 21 -28 21
-28 0 -29 -2 -16 -21z"/>
<path d="M16010 7441 c0 -5 7 -14 15 -21 8 -7 15 -21 15 -32 0 -42 50 -101 77
-91 21 8 15 23 -12 33 -29 11 -32 35 -9 61 15 17 14 19 -17 38 -35 22 -69 27
-69 12z"/>
<path d="M16285 7441 c-3 -6 4 -15 15 -21 11 -6 20 -19 20 -28 0 -21 19 -42
37 -42 9 0 13 14 13 41 0 36 -3 41 -19 36 -12 -3 -22 1 -25 9 -6 16 -32 19
-41 5z"/>
<path d="M15980 7385 c0 -8 7 -15 15 -15 8 0 15 7 15 15 0 8 -7 15 -15 15 -8
0 -15 -7 -15 -15z"/>
<path d="M16132 7383 c-32 -6 -25 -38 8 -38 28 0 41 -32 16 -41 -12 -5 -13
-10 -5 -26 9 -17 13 -18 20 -7 5 9 26 14 53 14 47 0 64 17 24 23 -27 4 -65 37
-74 64 -3 10 -8 17 -12 17 -4 -1 -17 -4 -30 -6z"/>
<path d="M16407 7329 c-16 -10 -14 -14 23 -51 22 -22 40 -44 40 -48 0 -4 25
-29 56 -55 38 -33 58 -44 63 -36 10 15 1 71 -10 71 -5 0 -9 6 -9 13 0 7 -9 18
-20 25 -17 10 -20 10 -20 -3 0 -16 -9 -19 -34 -9 -10 4 -16 18 -16 35 0 29
-26 69 -45 69 -5 0 -18 -5 -28 -11z"/>
<path d="M16305 7230 c-7 -12 2 -30 16 -30 5 0 9 9 9 20 0 21 -15 27 -25 10z"/>
<path d="M16895 7000 c3 -5 8 -10 11 -10 2 0 4 5 4 10 0 6 -5 10 -11 10 -5 0
-7 -4 -4 -10z"/>
<path d="M16970 6894 c0 -17 17 -36 24 -26 3 5 -1 15 -9 22 -8 7 -15 9 -15 4z"/>
<path d="M16770 6881 c0 -5 5 -13 10 -16 6 -3 10 -2 10 4 0 5 -4 13 -10 16 -5
3 -10 2 -10 -4z"/>
<path d="M17152 6268 c-5 -7 -13 -24 -17 -38 -7 -23 -7 -23 9 -7 10 9 24 17
31 17 20 0 30 21 14 31 -19 12 -25 11 -37 -3z"/>
<path d="M17050 6196 c0 -9 7 -16 16 -16 9 0 14 5 12 12 -6 18 -28 21 -28 4z"/>
<path d="M17113 6177 c-25 -11 -31 -27 -10 -27 19 0 40 16 36 28 -3 6 -12 6
-26 -1z"/>
<path d="M17160 6140 c0 -5 5 -10 10 -10 6 0 10 5 10 10 0 6 -4 10 -10 10 -5
0 -10 -4 -10 -10z"/>
<path d="M17070 6130 c0 -5 5 -10 10 -10 6 0 10 5 10 10 0 6 -4 10 -10 10 -5
0 -10 -4 -10 -10z"/>
<path d="M17215 6080 c-3 -5 1 -10 9 -10 9 0 16 5 16 10 0 6 -4 10 -9 10 -6 0
-13 -4 -16 -10z"/>
<path d="M17088 5863 c7 -3 16 -2 19 1 4 3 -2 6 -13 5 -11 0 -14 -3 -6 -6z"/>
</g>
</svg>
